{"title":"Elephant White 2011 WP x264 Feel-Free","uid":6200726,"size":784483237,"categoryP":"video","categoryS":"movies","magnet":"?xt=urn:btih:b11c50971cacffe5c4aac3b23a0166a79b78b161&amp;dn=Elephant+White+2011+WP+x264+Feel-Free&amp;tr=udp%3A%2F%2Ftracker.openbittorrent.com%3A80&amp;tr=udp%3A%2F%2Fopen.demonii.com%3A1337&amp;tr=udp%3A%2F%2Ftracker.coppersurfer.tk%3A6969&amp;tr=udp%3A%2F%2Fexodus.desync.com%3A6969","seeders":0,"leechers":1,"uploader":"hiest","files":-1,"time":1298605841,"description":"\n######## ######## ######## ##               ######## ########  ######## ######## \n##       ##       ##       ##               ##       ##     ## ##       ##       \n##       ##       ##       ##               ##       ##     ## ##       ##       \n######   ######   ######   ##       ####### ######   ########  ######   ######   \n##       ##       ##       ##               ##       ##   ##   ##       ##       \n##       ##       ##       ##               ##       ##    ##  ##       ##       \n##       ######## ######## ########         ##       ##     ## ######## ######## \n\n\nGenre:Action | Thriller\nLanguage:English\nIMDb:http://www.imdb.com/title/tt1578882/\nSource:IMAGiNE Thx.\n\n\nFormat : MPEG-4\nFormat profile : Base Media\nCodec ID : isom\nFile size : 746 MiB\nDuration : 1h 31mn\nOverall bit rate : 1 142 Kbps\nMovie name : Elephant White 2011 WP x264 Feel-Free\n\n\nVideo\nFormat settings, CABAC : Yes\nFormat settings, ReFrames : 4 frames\nCodec ID : avc1\nCodec ID/Info : Advanced Video Coding\nDuration : 1h 31mn\nBit rate mode : Variable\nBit rate : 984 Kbps\nWidth : 720 pixels\nHeight : 304 pixels\nDisplay aspect ratio : 2.35:1\nFrame rate mode : Constant\nFrame rate : 23.976 fps\nColor space : YUV\nChroma subsampling : 4:2:0\nBit depth : 8 bits\nScan type : Progressive\nBits/(Pixel*Frame) : 0.188\nStream size : 634 MiB (85%)\nWriting library : x264\n\nAudio\nID : 2\nFormat : AAC\nFormat/Info : Advanced Audio Codec\nFormat version : Version 4\nFormat profile : LC\nCodec ID : 40\nDuration : 1h 31mn\nBit rate mode : Variable\nBit rate : 165 Kbps\nChannel(s) : 2 channels\nChannel positions : Front: L R\nSampling rate : 48.0 KHz\nStream size : 108 MiB (14%)\n\n\nPlot:\nA mercenary in Thailand is engaged by a 14 year old girl who gives his life a new meaning\n\n\n\n\n\n================================== &lt;a href=&quot;\nhttp://thepiratebay.se/user/hiest&quot; rel=&quot;nofollow&quot; target=&quot;_NEW&quot;&gt;\nhttp://thepiratebay.se/user/hiest&lt;/a&gt;\n==================================\n\n\n\n\n\nScreen Shots:\n &lt;a href=&quot;\nhttp://www.postimg.com/29000/28898.jpg&quot; rel=&quot;nofollow&quot; target=&quot;_NEW&quot;&gt;\nhttp://www.postimg.com/29000/28898.jpg&lt;/a&gt;\n &lt;a href=&quot;\nhttp://www.postimg.com/29000/28901.jpg&quot; rel=&quot;nofollow&quot; target=&quot;_NEW&quot;&gt;\nhttp://www.postimg.com/29000/28901.jpg&lt;/a&gt;\n &lt;a href=&quot;\nhttp://www.postimg.com/29000/28899.jpg&quot; rel=&quot;nofollow&quot; target=&quot;_NEW&quot;&gt;\nhttp://www.postimg.com/29000/28899.jpg&lt;/a&gt;\n &lt;a href=&quot;\nhttp://www.postimg.com/29000/28900.jpg&quot; rel=&quot;nofollow&quot; target=&quot;_NEW&quot;&gt;\nhttp://www.postimg.com/29000/28900.jpg&lt;/a&gt;\n &lt;a href=&quot;\nhttp://www.postimg.com/29000/28902.jpg&quot; rel=&quot;nofollow&quot; target=&quot;_NEW&quot;&gt;\nhttp://www.postimg.com/29000/28902.jpg&lt;/a&gt;\n &lt;a href=&quot;\nhttp://www.postimg.com/29000/28903.jpg&quot; rel=&quot;nofollow&quot; target=&quot;_NEW&quot;&gt;\nhttp://www.postimg.com/29000/28903.jpg&lt;/a&gt;\n\n\n######## ######## ######## ##               ######## ########  ######## ######## \n##       ##       ##       ##               ##       ##     ## ##       ##       \n##       ##       ##       ##               ##       ##     ## ##       ##       \n######   ######   ######   ##       ####### ######   ########  ######   ######   \n##       ##       ##       ##               ##       ##   ##   ##       ##       \n##       ##       ##       ##               ##       ##    ##  ##       ##       \n##       ######## ######## ########         ##       ##     ## ######## ######## \n","torrent":{"xt":"urn:btih:b11c50971cacffe5c4aac3b23a0166a79b78b161","amp;dn":"Elephant+White+2011+WP+x264+Feel-Free","amp;tr":["udp%3A%2F%2Ftracker.openbittorrent.com%3A80","udp%3A%2F%2Fopen.demonii.com%3A1337","udp%3A%2F%2Ftracker.coppersurfer.tk%3A6969","udp%3A%2F%2Fexodus.desync.com%3A6969"],"infoHash":"b11c50971cacffe5c4aac3b23a0166a79b78b161","infoHashBuffer":{"type":"Buffer","data":[177,28,80,151,28,172,255,229,196,170,195,178,58,1,102,167,155,120,177,97]},"announce":[],"urlList":[]}}